# Vectary OBJ Export units=mm
mtllib unstructCube.mtl
o 000_Box_-_baked
g Box_-_baked
usemtl Box material_ef73da0c-2adf-4585-8bb7-c6ef699bbde8
v 50.000 -50.000 0.000
v -50.000 50.000 0.000
v 50.000 50.000 0.000
v -50.000 -50.000 0.000
v 50.000 50.000 100.000
v 50.000 -50.000 100.000
v -50.000 -50.000 100.000
v -50.000 50.000 100.000
vt 0.00000 0.00000
vt 1.00000 1.00000
vt 0.00000 1.00000
vt 1.00000 0.00000
vt 0.00000 0.00000
vt 1.00000 0.00000
vt 0.00000 1.00000
vt 0.00000 0.00000
vt 1.00000 0.00000
vt 0.00000 1.00000
vt 0.00000 0.00000
vt 1.00000 0.00000
vt 0.00000 1.00000
vt 0.00000 0.00000
vt 1.00000 0.00000
vt 0.00000 1.00000
vt 0.00000 0.00000
vt 1.00000 0.00000
vt 0.00000 1.00000
vt 0.00000 0.00000
vt 1.00000 0.00000
vt 0.00000 1.00000
vt 0.00000 0.00000
vt 1.00000 0.00000
vt 1.00000 1.00000
vt 0.00000 1.00000
vt 0.00000 0.00000
vt 1.00000 0.00000
vt 1.00000 1.00000
vt 0.00000 1.00000
vn 0.00000 1.00000 0.00000
vn 0.00000 1.00000 0.00000
vn 0.00000 1.00000 0.00000
vn 0.00000 1.00000 0.00000
vn 0.00000 0.00000 -1.00000
vn 0.00000 0.00000 -1.00000
vn 0.00000 0.00000 -1.00000
vn 0.00000 0.00000 -1.00000
vn -1.00000 0.00000 0.00000
vn -1.00000 0.00000 0.00000
vn -1.00000 0.00000 0.00000
vn -1.00000 0.00000 0.00000
vn 1.00000 0.00000 0.00000
vn 1.00000 0.00000 0.00000
vn 1.00000 0.00000 0.00000
vn 1.00000 0.00000 0.00000
vn 1.00000 0.00000 0.00000
vn 1.00000 0.00000 0.00000
vn 0.00000 -1.00000 0.00000
vn 0.00000 -1.00000 0.00000
vn 0.00000 -1.00000 0.00000
vn 0.00000 -1.00000 0.00000
vn 0.00000 -1.00000 0.00000
vn 0.00000 -1.00000 0.00000
vn 0.00000 0.00000 1.00000
vn 0.00000 0.00000 1.00000
vn 0.00000 0.00000 1.00000
vn 0.00000 0.00000 1.00000
vn 0.00000 0.00000 1.00000
vn 0.00000 0.00000 1.00000
f 3/1/2 2/4/3 8/2/4 5/3/1 
f 3/24/6 1/25/7 4/26/8 2/23/5 
f 2/28/10 4/29/11 7/30/12 8/27/9 
f 3/5/13 5/6/14 6/7/15 
f 3/8/16 6/9/17 1/10/18 
f 1/11/19 6/12/20 7/13/21 
f 1/14/22 7/15/23 4/16/24 
f 6/17/25 5/18/26 8/19/27 
f 6/20/28 8/21/29 7/22/30 
